<svg width="22" height="22" viewBox="0 0 22 22" fill="none" xmlns="http://www.w3.org/2000/svg">
<path d="M4.99988 8V1H16.9999V8M4.99988 17H2.99988C2.46944 17 1.96074 16.7893 1.58566 16.4142C1.21059 16.0391 0.999878 15.5304 0.999878 15V10C0.999878 9.46957 1.21059 8.96086 1.58566 8.58579C1.96074 8.21071 2.46944 8 2.99988 8H18.9999C19.5303 8 20.039 8.21071 20.4141 8.58579C20.7892 8.96086 20.9999 9.46957 20.9999 10V15C20.9999 15.5304 20.7892 16.0391 20.4141 16.4142C20.039 16.7893 19.5303 17 18.9999 17H16.9999M4.99988 13H16.9999V21H4.99988V13Z" stroke="black" stroke-width="2" stroke-linecap="round" stroke-linejoin="round"/>
</svg>
