<?xml version="1.0" standalone="no"?>
<!DOCTYPE svg PUBLIC "-//W3C//DTD SVG 20010904//EN"
 "http://www.w3.org/TR/2001/REC-SVG-20010904/DTD/svg10.dtd">
<svg version="1.0" xmlns="http://www.w3.org/2000/svg"
 width="1152.000000pt" height="1152.000000pt" viewBox="0 0 1152.000000 1152.000000"
 preserveAspectRatio="xMidYMid meet">
<metadata>
Created by potrace 1.14, written by Peter Selinger 2001-2017
</metadata>
<g transform="translate(0.000000,1152.000000) scale(0.100000,-0.100000)"
fill="#000000" stroke="none">
<path d="M6018 11515 c-2 -2 -68 -6 -148 -10 -80 -3 -167 -8 -195 -11 -27 -2
-81 -6 -120 -8 -38 -3 -70 -6 -70 -6 0 -1 -16 -3 -35 -5 -37 -3 -167 -15 -210
-20 -31 -3 -130 -16 -150 -20 -8 -2 -37 -6 -65 -9 -27 -4 -75 -11 -105 -16
-30 -5 -71 -12 -90 -15 -19 -3 -71 -13 -115 -21 -44 -8 -91 -18 -105 -20 -14
-3 -61 -14 -105 -24 -44 -11 -89 -21 -100 -23 -70 -13 -96 -20 -101 -28 -3 -5
-9 -7 -14 -4 -5 3 -30 -2 -55 -11 -26 -8 -57 -18 -69 -20 -37 -9 -51 -12 -53
-14 -2 -2 -7 -4 -13 -5 -5 -1 -11 -3 -12 -5 -2 -1 -10 -3 -18 -5 -17 -3 -254
-81 -280 -92 -8 -3 -18 -7 -22 -8 -5 -2 -10 -4 -13 -5 -3 -1 -8 -3 -12 -4 -5
-1 -12 -4 -18 -7 -5 -4 -57 -25 -115 -49 -58 -23 -119 -50 -136 -59 -17 -10
-47 -24 -67 -30 -20 -7 -37 -17 -37 -22 0 -5 -7 -9 -15 -9 -8 0 -29 -8 -47
-18 -18 -10 -67 -36 -108 -57 -41 -22 -77 -42 -80 -45 -3 -3 -20 -12 -37 -19
-18 -8 -33 -17 -33 -22 0 -4 -10 -11 -22 -15 -20 -6 -126 -70 -153 -91 -5 -5
-35 -24 -65 -42 -30 -19 -57 -36 -60 -40 -3 -3 -25 -20 -50 -36 -25 -16 -47
-32 -50 -35 -3 -3 -34 -27 -70 -54 -205 -157 -508 -449 -600 -580 -8 -12 -27
-34 -42 -51 -15 -16 -31 -38 -34 -47 -3 -10 -9 -18 -13 -18 -4 0 -17 -18 -30
-40 -12 -22 -26 -40 -32 -40 -5 0 -9 -5 -9 -11 0 -5 -18 -37 -40 -69 -22 -32
-40 -64 -40 -69 0 -6 -4 -11 -10 -11 -5 0 -10 -5 -10 -10 0 -6 -15 -34 -33
-63 -18 -29 -41 -71 -51 -94 -11 -24 -23 -43 -28 -43 -4 0 -8 -4 -8 -10 0 -5
-21 -53 -47 -107 -25 -53 -46 -103 -46 -110 0 -7 -4 -13 -8 -13 -6 0 -17 -21
-24 -50 -3 -8 -16 -43 -30 -75 -7 -16 -16 -41 -20 -55 -4 -14 -13 -38 -20 -55
-7 -16 -22 -59 -33 -95 -11 -36 -26 -85 -33 -110 -8 -25 -14 -47 -15 -50 0 -3
-6 -25 -13 -50 -7 -25 -15 -56 -17 -70 -3 -14 -8 -34 -11 -45 -3 -11 -8 -29
-9 -40 -2 -11 -10 -53 -18 -93 -9 -41 -15 -77 -14 -80 0 -4 -1 -9 -2 -12 -10
-26 -33 -230 -45 -400 -15 -198 -3 -582 20 -660 3 -8 7 -33 10 -55 6 -48 9
-64 30 -135 9 -30 17 -59 19 -65 15 -55 41 -125 48 -125 4 0 8 -7 8 -16 0 -19
45 -103 98 -183 36 -56 184 -211 200 -211 5 0 22 -11 38 -25 35 -30 270 -148
291 -146 2 0 19 -7 40 -15 20 -9 46 -18 57 -21 38 -8 51 -11 51 -13 0 -2 38
-12 60 -14 11 -2 29 -5 40 -9 22 -7 63 -15 115 -23 19 -3 49 -7 65 -10 78 -12
221 -23 343 -27 70 -2 92 0 92 10 0 7 -27 70 -60 139 -33 69 -63 137 -66 152
-4 15 -9 32 -13 37 -3 6 -6 13 -7 18 -1 4 -2 8 -4 10 -1 1 -3 13 -5 27 -2 14
-11 60 -19 104 -8 43 -18 108 -21 145 -3 36 -8 89 -10 116 -6 68 -7 588 -1
700 18 325 23 399 30 445 3 19 8 64 12 100 3 36 7 81 9 100 4 33 6 48 20 145
11 78 25 157 59 325 7 37 30 132 41 170 41 147 83 276 116 347 10 23 19 47 19
53 0 13 22 53 35 62 6 4 7 8 3 8 -4 0 4 20 17 45 14 25 36 65 50 90 32 58 56
97 72 113 7 7 13 17 13 21 0 5 12 21 28 37 15 16 35 40 44 53 44 63 234 243
308 291 12 8 28 20 34 25 6 6 29 22 51 35 22 14 47 30 56 35 88 55 299 149
359 161 13 3 30 10 37 16 7 6 13 8 13 4 0 -3 12 -1 28 5 15 6 38 12 52 15 14
2 54 10 90 18 36 8 85 17 110 20 25 3 56 8 70 10 63 11 199 16 204 8 5 -8 -10
-92 -30 -167 -3 -11 -6 -29 -8 -40 -7 -49 -22 -123 -26 -127 -3 -4 -8 -29 -15
-73 -3 -22 -9 -49 -12 -60 -8 -24 -9 -30 -17 -75 -4 -19 -9 -42 -11 -50 -2 -8
-6 -26 -9 -40 -2 -14 -10 -47 -16 -75 -6 -27 -14 -61 -16 -75 -3 -14 -12 -54
-20 -90 -9 -36 -17 -76 -20 -90 -5 -35 -12 -65 -14 -65 -1 0 -3 -11 -5 -25 -2
-14 -6 -36 -10 -50 -3 -14 -8 -36 -11 -50 -3 -14 -7 -32 -9 -40 -2 -8 -7 -28
-10 -45 -2 -16 -7 -41 -11 -55 -5 -25 -13 -61 -18 -90 -1 -8 -6 -26 -11 -40
-4 -14 -9 -34 -10 -45 -1 -11 -6 -38 -10 -60 -12 -55 -12 -55 -15 -57 -1 -2
-3 -12 -5 -23 -1 -11 -10 -54 -20 -95 -9 -41 -18 -84 -21 -95 -2 -11 -8 -42
-14 -70 -13 -65 -21 -100 -35 -165 -4 -14 -8 -36 -11 -50 -2 -14 -7 -36 -11
-50 -3 -14 -7 -27 -8 -30 0 -3 -5 -27 -10 -55 -4 -27 -10 -54 -11 -60 -3 -10
-17 -71 -29 -125 -2 -14 -12 -57 -21 -96 -8 -39 -17 -79 -19 -90 -2 -10 -4
-19 -5 -19 -1 0 -3 -12 -5 -27 -2 -16 -6 -37 -10 -47 -6 -20 -11 -43 -21 -96
-3 -16 -14 -70 -25 -120 -12 -49 -23 -103 -26 -120 -2 -16 -11 -55 -19 -87 -8
-31 -15 -68 -16 -82 -1 -14 -5 -26 -8 -26 -3 0 -6 -10 -7 -22 -1 -13 -4 -34
-7 -48 -3 -14 -10 -47 -16 -75 -19 -94 -28 -132 -34 -153 -3 -9 -7 -28 -10
-42 -3 -14 -10 -50 -16 -80 -11 -52 -14 -65 -24 -115 -2 -11 -22 -103 -45
-205 -22 -102 -42 -196 -45 -210 -3 -14 -8 -36 -11 -50 -3 -14 -7 -36 -10 -50
-3 -14 -7 -36 -10 -50 -4 -14 -9 -38 -12 -55 -8 -45 -11 -60 -13 -62 -4 -5
-15 -58 -24 -113 -3 -14 -5 -25 -6 -25 -1 0 -3 -7 -5 -15 -1 -8 -21 -100 -43
-205 -23 -104 -43 -201 -46 -215 -2 -14 -10 -47 -16 -75 -6 -27 -14 -59 -16
-70 -2 -11 -6 -30 -9 -43 -8 -34 -14 -62 -25 -117 -13 -65 -21 -100 -35 -165
-4 -14 -8 -36 -11 -50 -3 -14 -11 -53 -19 -88 -8 -34 -17 -74 -20 -90 -5 -26
-9 -47 -20 -95 -3 -12 -8 -40 -11 -62 -4 -22 -10 -42 -15 -43 -5 -2 -7 -7 -5
-11 3 -4 0 -27 -5 -52 -13 -53 -18 -76 -24 -109 -3 -14 -7 -35 -10 -48 -8 -33
-14 -62 -25 -117 -14 -70 -16 -78 -40 -185 -12 -52 -23 -106 -25 -120 -2 -14
-4 -25 -5 -25 -1 0 -3 -9 -5 -20 -2 -11 -16 -74 -30 -140 -27 -124 -30 -136
-42 -195 -9 -46 -10 -49 -13 -55 -1 -3 -4 -14 -5 -25 -1 -11 -3 -21 -5 -22 -2
-4 -6 -22 -15 -68 -3 -19 -10 -53 -16 -75 -16 -65 -16 -68 -25 -115 -9 -51
-11 -59 -14 -62 -1 -2 -3 -12 -4 -23 -3 -22 -17 -91 -23 -115 -3 -8 -6 -24 -8
-35 -2 -11 -4 -20 -5 -20 -2 0 -9 -34 -14 -72 -2 -18 -7 -36 -10 -41 -3 -5 -8
-24 -11 -43 -2 -19 -16 -83 -29 -144 -14 -60 -27 -122 -30 -137 -6 -30 -13
-59 -21 -95 -8 -35 -14 -63 -25 -118 -14 -66 -19 -91 -26 -117 -3 -13 -7 -32
-8 -43 -2 -11 -8 -40 -14 -65 -6 -25 -14 -61 -17 -80 -9 -49 -13 -65 -16 -65
-1 0 -3 -9 -4 -20 -2 -11 -6 -32 -9 -47 -3 -16 -9 -40 -12 -55 -3 -16 -14 -66
-24 -113 -10 -47 -21 -97 -24 -112 -14 -66 -18 -84 -31 -140 -7 -32 -11 -58
-9 -58 3 0 0 -8 -5 -18 -5 -10 -12 -36 -15 -58 -4 -21 -15 -79 -26 -129 -11
-49 -23 -101 -26 -115 -3 -14 -14 -67 -25 -119 -12 -51 -23 -103 -25 -115 -11
-50 -16 -72 -19 -91 -2 -11 -6 -29 -9 -40 -6 -24 -46 -214 -49 -235 -1 -8 -6
-21 -10 -27 -5 -7 -6 -13 -4 -13 3 0 1 -17 -5 -37 -5 -21 -11 -47 -13 -58 -1
-11 -6 -37 -10 -58 l-7 -37 1110 0 1110 0 6 33 c3 17 8 42 11 54 5 23 10 47
20 93 3 14 8 35 10 47 3 13 7 33 10 45 2 13 7 34 10 48 3 14 8 36 11 50 3 14
7 36 10 50 2 14 7 31 10 39 2 8 7 30 10 50 8 45 12 66 14 66 2 0 5 17 13 60 3
17 13 64 22 105 9 41 19 86 21 100 3 14 7 33 10 42 3 9 7 27 9 40 3 13 7 34
10 48 3 14 7 34 10 45 13 65 49 229 61 280 8 33 16 76 19 95 3 19 12 63 20 96
8 34 16 73 19 85 2 13 9 44 15 69 7 25 14 56 17 70 2 14 7 36 9 50 3 14 8 39
11 55 3 17 9 46 14 65 10 39 19 80 26 125 3 17 8 37 11 45 3 8 7 25 9 38 1 12
15 75 29 140 15 64 29 128 31 142 3 14 12 54 20 90 8 36 17 81 20 100 3 19 8
44 11 55 7 21 8 25 16 65 3 14 10 45 16 70 5 25 12 56 15 70 2 14 9 45 15 70
5 25 13 61 16 80 3 19 12 62 20 95 33 139 45 198 41 203 -3 2 0 14 6 26 6 11
12 32 14 46 1 14 3 26 4 28 3 3 5 10 14 62 5 25 21 101 37 169 15 68 26 128
23 133 -3 4 -1 8 3 8 5 0 9 9 10 21 2 16 16 89 28 139 5 23 15 70 19 90 3 14
12 57 21 95 9 39 19 84 21 100 3 17 14 67 25 112 10 44 21 94 24 110 2 15 7
39 10 53 4 14 9 39 12 55 3 17 9 38 15 49 7 14 7 17 -2 11 -9 -6 -9 -3 -2 11
5 11 13 35 16 54 3 19 10 50 15 68 5 18 10 35 10 37 0 3 2 18 5 33 4 15 8 36
10 47 3 11 11 52 20 90 8 39 18 84 21 100 3 17 8 39 10 50 3 11 7 29 9 40 2
11 9 42 15 68 6 27 9 52 6 57 -3 4 -1 10 5 12 5 1 11 21 14 43 2 22 6 47 9 55
4 8 13 49 22 90 9 41 18 84 20 95 3 11 7 31 10 45 3 14 8 36 11 50 3 14 10 53
17 88 6 34 16 62 22 63 5 0 509 1 1118 1 609 1 1110 4 1112 8 4 6 42 167 51
218 9 49 13 71 34 162 11 52 25 117 30 144 6 27 14 65 20 85 5 20 11 47 14 61
2 14 11 59 19 100 9 41 18 87 21 102 2 15 7 31 9 36 3 4 8 28 12 52 3 25 10
59 15 75 16 54 19 95 7 96 -7 0 -511 1 -1120 1 l-1109 1 7 21 c3 12 8 32 11
46 3 14 16 79 31 145 14 66 27 129 28 140 2 11 4 20 5 20 2 0 4 9 5 20 2 22
26 138 39 193 18 73 26 114 30 145 2 20 7 40 10 45 3 5 8 24 11 43 2 19 11 64
19 100 8 36 18 78 21 93 6 29 12 59 20 94 3 12 7 32 10 45 3 12 7 36 10 52 2
17 9 48 15 70 5 22 13 56 16 75 3 19 12 62 19 95 8 33 17 75 20 94 3 19 8 37
10 41 3 4 7 22 10 41 15 104 18 119 27 119 5 0 7 3 4 8 -3 6 11 89 39 217 2
11 13 63 25 115 11 52 23 108 26 123 2 16 13 66 23 110 11 45 22 96 24 112 4
23 49 238 61 290 2 6 6 28 11 50 10 52 14 72 30 145 2 8 4 15 5 15 1 0 3 16 6
35 2 19 9 50 15 68 9 26 15 31 32 27 12 -2 51 -12 87 -20 36 -9 74 -17 85 -19
11 -3 31 -7 45 -10 14 -3 50 -11 80 -17 30 -5 69 -15 86 -20 17 -5 48 -12 70
-14 40 -5 79 -12 79 -15 0 -1 9 -3 20 -5 28 -3 204 -35 235 -41 14 -3 39 -7
55 -10 17 -2 55 -8 85 -14 30 -5 75 -12 100 -15 25 -3 56 -8 70 -10 14 -3 45
-7 70 -9 25 -3 65 -8 90 -11 25 -3 63 -8 85 -10 22 -3 58 -7 80 -10 38 -5 81
-9 228 -20 37 -3 114 -8 170 -10 56 -2 102 -4 102 -5 0 -1 17 -3 38 -4 20 -1
37 2 37 7 0 6 5 6 13 1 15 -11 38 -11 55 -1 6 5 12 4 12 0 0 -10 46 -9 88 2
15 4 35 9 46 11 10 2 44 11 75 20 31 9 61 17 66 18 58 11 321 130 356 162 8 8
20 14 25 14 6 0 19 8 30 18 10 9 42 34 69 54 62 46 193 180 268 275 31 40 57
74 57 76 0 3 17 31 39 63 42 65 88 152 121 229 11 28 28 62 36 77 8 15 14 30
14 33 -1 3 10 40 24 83 14 43 28 92 31 110 3 17 9 42 15 56 5 15 7 26 5 26 -2
0 0 11 5 25 5 14 12 36 14 48 7 33 13 54 36 142 12 44 23 87 25 95 2 8 4 15 5
15 1 0 4 8 14 50 2 11 9 32 15 48 6 15 7 27 4 27 -4 0 -2 5 5 12 7 7 12 20 12
30 0 15 -4 16 -27 7 -29 -11 -288 -76 -335 -84 -58 -10 -84 -15 -108 -20 -40
-8 -131 -21 -210 -29 -25 -3 -45 -6 -45 -6 0 -1 -29 -4 -130 -14 -303 -28
-760 -25 -1165 8 -36 3 -101 8 -145 11 -44 4 -100 8 -125 10 -25 2 -76 7 -115
9 -38 3 -88 7 -110 10 -22 2 -74 7 -115 11 -41 4 -91 8 -110 10 -19 2 -69 6
-110 9 -41 4 -85 8 -97 10 -12 3 -48 7 -80 11 -32 3 -92 9 -133 14 -41 5 -78
6 -82 4 -5 -2 -8 -1 -8 4 0 4 -24 8 -53 9 -28 1 -79 4 -112 8 -33 3 -87 8
-120 11 -63 6 -792 14 -797 10z"/>
</g>
</svg>
